<svg width="30" height="18" viewBox="0 0 30 18" fill="none" xmlns="http://www.w3.org/2000/svg">
<path d="M15.0318 17.9996C15.7035 17.9941 16.347 17.7211 16.8258 17.2383L29.2377 4.5288C29.7244 4.0327 29.9986 3.35932 30 2.65632C30.0014 1.95337 29.7302 1.27851 29.246 0.780535C28.7615 0.282225 28.1039 0.0014801 27.4174 5.72205e-06C26.7309 -0.00146866 26.0718 0.276316 25.5855 0.772043L15.0002 11.6111L4.41497 0.772043H4.41461C3.75949 0.104179 2.80567 -0.155136 1.91319 0.0919895C1.02034 0.339115 0.32411 1.05504 0.086768 1.96995C-0.150602 2.88531 0.10697 3.86049 0.762445 4.52878L13.1744 17.2383C13.669 17.7373 14.3389 18.0118 15.033 17.9996L15.0318 17.9996Z" fill="white"/>
</svg>
