<svg width="28" height="20" viewBox="0 0 28 20" fill="none" xmlns="http://www.w3.org/2000/svg">
<path d="M24.7021 0C25.3646 0.000122956 26.0003 0.259359 26.4688 0.720703C26.9372 1.1824 27.2002 1.80905 27.2002 2.46191V17.5391C27.2001 18.1916 26.9362 18.8177 26.4678 19.2793C25.9992 19.7408 25.3637 20 24.7012 20H2.49805C1.83549 19.9999 1.19993 19.7409 0.731445 19.2793C0.26301 18.8177 0.000120955 18.1916 0 17.5391V2.46191C0 1.809 0.262897 1.18237 0.731445 0.720703C1.19997 0.25932 1.83549 7.21899e-05 2.49805 0H24.7021ZM1.58594 18.376C1.82137 18.626 2.15175 18.7685 2.49805 18.7695H24.7012V18.7627C25.044 18.7648 25.3731 18.6284 25.6104 18.3848L18.2402 9.89551L15.4043 12.8154C14.9331 13.2996 14.2815 13.5742 13.6006 13.5742C13.0049 13.5741 12.4319 13.364 11.9824 12.9873L11.7979 12.8154L8.7627 9.68945L1.58594 18.376ZM19.1055 8.99316L25.9502 16.8828L25.9512 2.46094C25.9494 2.31352 25.9202 2.16782 25.8662 2.03027L19.1055 8.99316ZM1.33398 2.03125C1.28 2.16877 1.25175 2.31453 1.25 2.46191V16.8281L7.89258 8.78516L1.33398 2.03125ZM2.49805 1.23047C2.43205 1.23154 2.36591 1.23765 2.30078 1.24902L12.7002 11.9531C12.9358 12.1947 13.2607 12.332 13.6006 12.332C13.9406 12.332 14.2665 12.1948 14.502 11.9531L24.8975 1.24902C24.8325 1.23771 24.767 1.23155 24.7012 1.23047H2.49805Z" fill="#00207D"/>
</svg>
