<svg width="18" height="16" viewBox="0 0 18 16" fill="none" xmlns="http://www.w3.org/2000/svg">
<path d="M9.00014 1C9.5708 1 10.0985 1.29887 10.3839 1.7832L16.7863 12.6514C17.0717 13.1356 17.0714 13.7323 16.7863 14.2168C16.5009 14.7013 15.973 15 15.4025 15H2.5978C2.02715 15 1.49941 14.7014 1.21401 14.2168C0.928754 13.7323 0.928571 13.1358 1.21401 12.6514L7.61636 1.7832C7.90189 1.29889 8.42952 1.00002 9.00014 1ZM2.5978 13.4346H15.4035L9.00014 2.56543L2.5978 13.4346Z" fill="#012169"/>
<path d="M9.00014 1V0.8H9.00014L9.00014 1ZM10.3839 1.7832L10.5563 1.68169L10.5562 1.68167L10.3839 1.7832ZM16.7863 12.6514L16.614 12.7529L16.614 12.7529L16.7863 12.6514ZM16.7863 14.2168L16.9586 14.3183L16.9586 14.3182L16.7863 14.2168ZM1.21401 14.2168L1.04166 14.3183L1.04168 14.3183L1.21401 14.2168ZM1.21401 12.6514L1.38633 12.7529L1.38633 12.7529L1.21401 12.6514ZM7.61636 1.7832L7.44407 1.68163L7.44403 1.68169L7.61636 1.7832ZM2.5978 13.4346L2.42548 13.3331L2.24788 13.6346H2.5978V13.4346ZM15.4035 13.4346V13.6346H15.7534L15.5758 13.3331L15.4035 13.4346ZM9.00014 2.56543L9.17246 2.46391L9.00013 2.17139L8.82782 2.46392L9.00014 2.56543ZM9.00014 1V1.2C9.50123 1.2 9.96281 1.46249 10.2116 1.88474L10.3839 1.7832L10.5562 1.68167C10.2343 1.13526 9.64037 0.8 9.00014 0.8V1ZM10.3839 1.7832L10.2116 1.88472L16.614 12.7529L16.7863 12.6514L16.9586 12.5499L10.5563 1.68169L10.3839 1.7832ZM16.7863 12.6514L16.614 12.7529C16.8624 13.1744 16.8623 13.6933 16.6139 14.1154L16.7863 14.2168L16.9586 14.3182C17.2806 13.7712 17.281 13.0968 16.9586 12.5498L16.7863 12.6514ZM16.7863 14.2168L16.614 14.1153C16.3652 14.5376 15.9035 14.8 15.4025 14.8V15V15.2C16.0425 15.2 16.6366 14.8649 16.9586 14.3183L16.7863 14.2168ZM15.4025 15V14.8H2.5978V15V15.2H15.4025V15ZM2.5978 15V14.8C2.09666 14.8 1.63513 14.5377 1.38635 14.1153L1.21401 14.2168L1.04168 14.3183C1.36368 14.8651 1.95764 15.2 2.5978 15.2V15ZM1.21401 14.2168L1.38636 14.1153C1.13794 13.6934 1.13783 13.1747 1.38633 12.7529L1.21401 12.6514L1.0417 12.5498C0.719315 13.097 0.719565 13.7712 1.04166 14.3183L1.21401 14.2168ZM1.21401 12.6514L1.38633 12.7529L7.78868 1.88472L7.61636 1.7832L7.44403 1.68169L1.04169 12.5499L1.21401 12.6514ZM7.61636 1.7832L7.78864 1.88478C8.0376 1.46249 8.49911 1.20002 9.00015 1.2L9.00014 1L9.00014 0.8C8.35992 0.800024 7.76617 1.13529 7.44407 1.68163L7.61636 1.7832ZM2.5978 13.4346V13.6346H15.4035V13.4346V13.2346H2.5978V13.4346ZM15.4035 13.4346L15.5758 13.3331L9.17246 2.46391L9.00014 2.56543L8.82783 2.66695L15.2311 13.5361L15.4035 13.4346ZM9.00014 2.56543L8.82782 2.46392L2.42548 13.3331L2.5978 13.4346L2.77013 13.5361L9.17247 2.66694L9.00014 2.56543Z" fill="white"/>
<path d="M8.16791 6.30571V9.46056C8.16791 9.87807 8.52619 10.2165 8.96791 10.2165C9.40977 10.2165 9.76791 9.87794 9.76791 9.46056V6.30571C9.76791 5.88821 9.40963 5.5498 8.96791 5.5498C8.52605 5.5498 8.16791 5.88821 8.16791 6.30571Z" fill="#012169" stroke="white" stroke-width="0.4"/>
<path d="M9.77188 11.8891C9.77188 12.3187 9.41374 12.6669 8.97188 12.6669C8.53001 12.6669 8.17188 12.3187 8.17188 11.8891C8.17188 11.4595 8.53001 11.1113 8.97188 11.1113C9.41374 11.1113 9.77188 11.4595 9.77188 11.8891Z" fill="#012169"/>
<path d="M9.77188 11.8891C9.77188 12.3187 9.41374 12.6669 8.97188 12.6669C8.53001 12.6669 8.17188 12.3187 8.17188 11.8891C8.17188 11.4595 8.53001 11.1113 8.97188 11.1113C9.41374 11.1113 9.77188 11.4595 9.77188 11.8891" stroke="white" stroke-width="0.4"/>
</svg>
