<svg width="21" height="18" viewBox="0 0 21 18" fill="none" xmlns="http://www.w3.org/2000/svg">
<path d="M5.8125 4.51758C5.7884 4.70682 5.7754 4.90012 5.77539 5.09668C5.77539 5.19777 5.77965 5.29819 5.78613 5.39746H4.18945V15.541H5.70117C5.93018 14.7649 6.57134 14.2209 7.30371 14.2207C8.05951 14.2207 8.67821 14.791 8.90723 15.541H14.4482V5.39746H13.1035C13.11 5.2982 13.1133 5.19775 13.1133 5.09668C13.1133 4.90011 13.1003 4.70684 13.0762 4.51758H15.2275V6.56152H17.7012C19.6699 6.56152 20.9526 8.21766 21 10.7549V16.3701H19.2373C19.1227 17.3019 18.4123 17.9999 17.5654 18C16.7184 18 16.0082 17.302 15.8936 16.3701H9C8.88538 17.302 8.1751 18 7.32812 18C6.48137 17.9997 5.77182 17.3018 5.65723 16.3701H3.45801V13.1084H1.16797V12.2549H3.45801V10.5205H0.619141V9.66699H3.45801V7.93359H0V7.0791H3.45801V4.51758H5.8125ZM7.30469 15.1016C6.8011 15.1016 6.38867 15.5676 6.38867 16.1367C6.3887 16.7058 6.80111 17.1719 7.30469 17.1719C7.80823 17.1718 8.22068 16.7058 8.2207 16.1367C8.2207 15.5676 7.80825 15.1016 7.30469 15.1016ZM17.5176 15.1016C17.014 15.1016 16.6016 15.5676 16.6016 16.1367C16.6016 16.7058 17.014 17.1719 17.5176 17.1719C18.0211 17.1718 18.4336 16.7058 18.4336 16.1367C18.4336 15.5676 18.0211 15.1016 17.5176 15.1016ZM15.2031 7.41602V15.541H15.9131C16.1421 14.7647 16.7608 14.2207 17.5166 14.2207C18.2723 14.2209 18.8902 14.7911 19.1191 15.541H20.1504L20.1494 10.7803C20.1494 8.71022 19.2106 7.41621 17.6768 7.41602H15.2031Z" fill="#00237E"/>
<path d="M9.44434 1C11.4674 1 13.1132 2.83779 13.1133 5.09668C13.1133 7.35568 11.4675 9.19336 9.44434 9.19336C7.4213 9.19323 5.77539 7.3556 5.77539 5.09668C5.77551 2.83787 7.42137 1.00013 9.44434 1ZM9.44531 1.51172C7.67501 1.51172 6.23438 3.11998 6.23438 5.09668C6.23445 7.07331 7.67505 8.68164 9.44531 8.68164C11.2154 8.68138 12.6552 7.07315 12.6553 5.09668C12.6553 3.12014 11.2154 1.51198 9.44531 1.51172Z" fill="#00237E"/>
<path d="M9.44434 1V0.75H9.44432L9.44434 1ZM13.1133 5.09668H13.3633V5.09667L13.1133 5.09668ZM9.44434 9.19336L9.44432 9.44336H9.44434V9.19336ZM5.77539 5.09668L5.52539 5.09667V5.09668H5.77539ZM9.44531 1.51172L9.44535 1.26172H9.44531V1.51172ZM6.23438 5.09668H5.98438V5.09669L6.23438 5.09668ZM9.44531 8.68164V8.93164H9.44535L9.44531 8.68164ZM12.6553 5.09668L12.9053 5.09669V5.09668H12.6553ZM9.44434 1V1.25C11.3041 1.25 12.8632 2.94921 12.8633 5.09669L13.1133 5.09668L13.3633 5.09667C13.3632 2.72637 11.6307 0.75 9.44434 0.75V1ZM13.1133 5.09668H12.8633C12.8633 7.24425 11.3042 8.94336 9.44434 8.94336V9.19336V9.44336C11.6308 9.44336 13.3633 7.46712 13.3633 5.09668H13.1133ZM9.44434 9.19336L9.44435 8.94336C7.58457 8.94324 6.02539 7.24416 6.02539 5.09668H5.77539H5.52539C5.52539 7.46705 7.25802 9.44322 9.44432 9.44336L9.44434 9.19336ZM5.77539 5.09668L6.02539 5.09669C6.0255 2.9493 7.58465 1.25012 9.44435 1.25L9.44434 1L9.44432 0.75C7.25808 0.750138 5.52551 2.72643 5.52539 5.09667L5.77539 5.09668ZM9.44531 1.51172V1.26172C7.51175 1.26172 5.98438 3.00852 5.98438 5.09668H6.23438H6.48438C6.48438 3.23144 7.83826 1.76172 9.44531 1.76172V1.51172ZM6.23438 5.09668L5.98438 5.09669C5.98445 7.18476 7.51179 8.93164 9.44531 8.93164V8.68164V8.43164C7.83832 8.43164 6.48445 6.96185 6.48438 5.09667L6.23438 5.09668ZM9.44531 8.68164L9.44535 8.93164C11.3787 8.93136 12.9052 7.18454 12.9053 5.09669L12.6553 5.09668L12.4053 5.09667C12.4052 6.96176 11.052 8.43141 9.44528 8.43164L9.44531 8.68164ZM12.6553 5.09668H12.9053C12.9053 3.00874 11.3787 1.262 9.44535 1.26172L9.44531 1.51172L9.44528 1.76172C11.0521 1.76195 12.4053 3.23154 12.4053 5.09668H12.6553Z" fill="#00237E"/>
<path d="M9.67349 2.53613H9.21484V5.20273L10.658 6.81409L10.9822 6.45201L9.67349 4.99068V2.53613Z" fill="#00237E" stroke="#00237E" stroke-width="0.5"/>
</svg>
